<svg width="40" height="40" viewBox="0 0 40 40" fill="none" xmlns="http://www.w3.org/2000/svg">
<path d="M34.12 5.83111C30.2311 1.96222 25.48 0 20 0C14.4689 0 9.70444 1.96444 5.83778 5.83333C1.96444 9.70222 0 14.4711 0 20C0 25.4778 1.96222 30.2289 5.83111 34.12C9.7 38.0222 14.4667 40 20 40C25.4822 40 30.2333 38.0222 34.1244 34.1267C38.0244 30.2311 40 25.4778 40 20C40 14.4711 38.0222 9.70222 34.12 5.83111ZM30.9822 30.9844C28.4556 33.5156 25.5689 34.9578 22.2222 35.3956V24.4444H26.6667V20H22.2222V16.8889C22.2222 16.7136 22.2568 16.54 22.3239 16.3781C22.3911 16.2162 22.4895 16.0691 22.6135 15.9453C22.7376 15.8215 22.8848 15.7233 23.0469 15.6564C23.2089 15.5895 23.3825 15.5553 23.5578 15.5556H26.6667V11.1111H23.5622C21.9133 11.1111 20.5378 11.7178 19.4356 12.9378C18.3333 14.1533 17.7778 15.6378 17.7778 17.4V20H13.3333V24.4444H17.7778V35.4C14.3956 34.9667 11.4978 33.5222 8.98445 30.9911C5.92889 27.9156 4.44444 24.32 4.44444 20C4.44444 15.6311 5.92667 12.0267 8.98222 8.97778C12.0267 5.92667 15.6311 4.44444 20 4.44444C24.3222 4.44444 27.9156 5.92889 30.9889 8.98445C34.0622 12.0333 35.5556 15.6378 35.5556 20C35.5556 24.3133 34.06 27.9089 30.9822 30.9844Z" fill="black" fill-opacity="0.66"/>
</svg>
