<svg width="41" height="41" viewBox="0 0 41 41" fill="none" xmlns="http://www.w3.org/2000/svg">
<path d="M20.5 3.69384C25.9737 3.69384 26.622 3.71466 28.7836 3.81316C30.7824 3.90445 31.8679 4.23837 32.5904 4.51913C33.5471 4.89101 34.23 5.33529 34.9474 6.05263C35.6649 6.76996 36.109 7.45287 36.4809 8.40964C36.7616 9.13211 37.0956 10.2176 37.1868 12.2162C37.2853 14.378 37.3062 15.0263 37.3062 20.5C37.3062 25.9738 37.2853 26.6221 37.1868 28.7838C37.0956 30.7825 36.7616 31.8679 36.4809 32.5904C36.109 33.5471 35.6647 34.2302 34.9474 34.9475C34.23 35.6649 33.5471 36.1091 32.5904 36.4809C31.8679 36.7616 30.7824 37.0957 28.7836 37.1868C26.6223 37.2855 25.974 37.3063 20.5 37.3063C15.0259 37.3063 14.3775 37.2855 12.2162 37.1868C10.2175 37.0956 9.13211 36.7616 8.40964 36.4809C7.45287 36.1091 6.7698 35.6649 6.05246 34.9475C5.33512 34.23 4.89085 33.5471 4.51913 32.5904C4.23837 31.868 3.90429 30.7825 3.81316 28.7838C3.7145 26.6221 3.69368 25.9738 3.69368 20.5C3.69368 15.0263 3.7145 14.378 3.81316 12.2164C3.90445 10.2176 4.23837 9.13211 4.51913 8.40964C4.89085 7.45287 5.33512 6.76996 6.05246 6.05263C6.76996 5.33512 7.45287 4.89101 8.40964 4.51913C9.13195 4.23837 10.2175 3.90445 12.2162 3.81316C14.3779 3.71466 15.0262 3.69384 20.5 3.69384ZM20.5 0C14.9325 0 14.2344 0.023543 12.0479 0.12332C9.86578 0.222937 8.37553 0.569516 7.0717 1.07625C5.7235 1.60012 4.58031 2.30112 3.44064 3.4408C2.30096 4.58047 1.60012 5.72366 1.07625 7.0717C0.569355 8.37569 0.222937 9.86594 0.12332 12.0479C0.023543 14.2344 0 14.9325 0 20.5C0 26.0675 0.023543 26.7656 0.12332 28.9521C0.222937 31.1342 0.569355 32.6245 1.07625 33.9283C1.59996 35.2763 2.30096 36.4197 3.44064 37.5594C4.58031 38.699 5.7235 39.3999 7.0717 39.9237C8.37569 40.4306 9.86578 40.7771 12.0478 40.8767C14.2344 40.9765 14.9325 41 20.5 41C26.0675 41 26.7656 40.9765 28.9521 40.8767C31.1341 40.7771 32.6243 40.4306 33.9281 39.9237C35.2763 39.4 36.4195 38.699 37.5592 37.5594C38.6989 36.4197 39.3999 35.2765 39.9237 33.9283C40.4305 32.6243 40.7771 31.1342 40.8767 28.9522C40.9765 26.7656 41 26.0675 41 20.5C41 14.9325 40.9765 14.2344 40.8767 12.0479C40.7771 9.86594 40.4305 8.37569 39.9237 7.07186C39.3999 5.72366 38.6989 4.58047 37.5592 3.4408C36.4195 2.30112 35.2763 1.59996 33.9283 1.07625C32.6243 0.569516 31.1341 0.222937 28.9521 0.12332C26.7656 0.023543 26.0675 0 20.5 0ZM20.5 9.97293C14.686 9.97293 9.97293 14.6863 9.97293 20.5C9.97293 26.314 14.686 31.0271 20.5 31.0271C26.3138 31.0271 31.0271 26.314 31.0271 20.5C31.0271 14.6862 26.3138 9.97293 20.5 9.97293ZM20.5 27.3334C16.7261 27.3334 13.6666 24.2739 13.6666 20.5C13.6666 16.7261 16.7261 13.6666 20.5 13.6666C24.2739 13.6666 27.3334 16.7261 27.3334 20.5C27.3334 24.2739 24.2739 27.3334 20.5 27.3334ZM33.9028 9.557C33.9028 10.9158 32.8016 12.017 31.4428 12.017C30.0842 12.017 28.9828 10.9158 28.9828 9.557C28.9828 8.1984 30.0842 7.097 31.4428 7.097C32.8016 7.097 33.9028 8.1984 33.9028 9.557Z" fill="#0A0A08" fill-opacity="0.66"/>
</svg>
