<svg width="41" height="41" viewBox="0 0 41 41" fill="none" xmlns="http://www.w3.org/2000/svg">
<path d="M16.0196 28.0167H12.3752V16.1745H16.0196V28.0167ZM14.1974 14.6552C12.8831 14.6552 12.2248 14.0471 12.2248 12.833C12.2208 12.5894 12.2696 12.3477 12.3679 12.1248C12.4662 11.9018 12.6116 11.7028 12.7943 11.5415C13.1741 11.1871 13.6781 10.9965 14.1974 11.0108C15.5117 11.0108 16.1699 11.6212 16.1699 12.8353C16.1699 14.0493 15.5139 14.6552 14.1974 14.6552ZM29.5359 28.0167H25.8163V21.4111C25.8163 19.6914 25.2059 18.8304 23.9918 18.8304C23.0306 18.8304 22.3997 19.311 22.0922 20.2722C21.9942 20.4248 21.9418 20.7301 21.9418 21.1833V28.0167H18.2222V19.9693C18.2222 18.1471 18.1949 16.8829 18.1471 16.1745H21.3359L21.5637 17.7667C22.3997 16.5002 23.6137 15.8693 25.2833 15.8693C26.5521 15.8693 27.5748 16.3112 28.3583 17.1972C29.1464 18.0833 29.5382 19.3611 29.5382 21.033V28.0167H29.5359ZM20.5 41C9.19539 41 0 31.8046 0 20.5C0 9.19539 9.19539 0 20.5 0C31.8046 0 41 9.19539 41 20.5C41 31.8046 31.8046 41 20.5 41ZM20.5 4.55556C11.7101 4.55556 4.55556 11.7101 4.55556 20.5C4.55556 29.2899 11.7101 36.4444 20.5 36.4444C29.2899 36.4444 36.4444 29.2899 36.4444 20.5C36.4444 11.7101 29.2899 4.55556 20.5 4.55556Z" fill="black" fill-opacity="0.66"/>
</svg>
