<svg width="42" height="41" viewBox="0 0 42 41" fill="none" xmlns="http://www.w3.org/2000/svg">
<path d="M28.651 16.5891C29.4863 16.0857 30.044 15.4023 30.3147 14.5299C29.5494 14.9344 28.7281 15.2282 27.8763 15.4023C27.5281 15.0284 27.1016 14.7317 26.6258 14.5325C26.15 14.3333 25.6359 14.2361 25.1183 14.2475C24.0357 14.2475 23.1233 14.6188 22.3767 15.3386C22.0169 15.6812 21.7325 16.0918 21.5407 16.5453C21.349 16.9988 21.2539 17.4857 21.2613 17.9762C21.2613 18.2883 21.301 18.5684 21.3827 18.8053C18.1907 18.696 15.5517 17.4068 13.4703 14.9194C13.1289 15.4859 12.9463 16.13 12.9407 16.7872C12.9407 18.1038 13.51 19.147 14.644 19.9146C14.0481 19.8753 13.4676 19.713 12.9407 19.4386C12.9407 20.3793 13.223 21.1651 13.7923 21.8576C14.3593 22.5409 15.092 22.9782 15.9833 23.1627C15.6516 23.2447 15.3105 23.2853 14.9683 23.2834C14.7348 23.2965 14.5007 23.2679 14.2777 23.1992C14.5203 23.9668 14.9683 24.5863 15.617 25.0624C16.2633 25.5407 17.01 25.7913 17.85 25.8141C16.5017 26.8605 14.824 27.419 13.1017 27.3948C12.663 27.3948 12.355 27.3903 12.1683 27.3561C13.9175 28.4668 15.9641 29.0477 18.0507 29.0257C20.2697 29.0257 22.232 28.4768 23.9353 27.3789C25.6387 26.2878 26.901 24.9417 27.7083 23.3541C28.5077 21.82 28.9243 20.1233 28.924 18.4022V17.9261C29.708 17.3498 30.345 16.7007 30.8327 15.9809C30.1385 16.2831 29.404 16.4878 28.651 16.5891ZM21 41C15.19 41 10.185 38.9728 6.12267 34.973C2.06033 30.9846 0 26.1147 0 20.5C0 14.8329 2.06267 9.94478 6.12967 5.97917C10.1897 2.01356 15.1923 0 21 0C26.754 0 31.7427 2.01128 35.826 5.97689C39.9233 9.94478 42 14.8329 42 20.5C42 26.1147 39.9257 30.9869 35.8307 34.9798C31.745 38.9728 26.7563 41 21 41ZM21 4.55556C16.4127 4.55556 12.628 6.07483 9.43133 9.20222C6.223 12.3273 4.66667 16.0219 4.66667 20.5C4.66667 24.928 6.22533 28.6134 9.43367 31.7636C12.635 34.9138 16.4173 36.4444 21 36.4444C25.5337 36.4444 29.3067 34.9115 32.5313 31.7591C35.763 28.6066 37.3333 24.9212 37.3333 20.5C37.3333 16.0287 35.7653 12.3342 32.5383 9.20906C29.3113 6.07711 25.5383 4.55556 21 4.55556Z" fill="black" fill-opacity="0.66"/>
</svg>
